# xmcd CD database file
#
# Track frame offsets:
#	150
#	20425
#	42405
#	54015
#	72420
#	91392
#	111767
#	127005
#	143205
#	161590
#	178027
#	193570
#
# Disc length: 2841 seconds
#
# Revision: 2
# Processed by: cddbd v1.4PL0 Copyright (c) Steve Scherf et al.
# Submitted via: CDex 1.50
#
DISCID=a40b170c
DTITLE=Lennie Gallant - The Open Window
DYEAR=1994
DGENRE=Folk
TTITLE0=Which Way Does The River Run
TTITLE1=The Pearl (Would You Meet Me There)
TTITLE2=The Open Window
TTITLE3=Peter's Dream
TTITLE4=Embers
TTITLE5=Mademoiselle (Voulez-vous Danser)
TTITLE6=How Can I Trust The Captain
TTITLE7=Fighting For Your Love
TTITLE8=Three Words
TTITLE9=Looking At The Moon (For The First Time)
TTITLE10=Year Of The Angel
TTITLE11=Northern Lights
EXTD=YEAR: 1994
EXTT0=
EXTT1=
EXTT2=
EXTT3=
EXTT4=
EXTT5=
EXTT6=
EXTT7=
EXTT8=
EXTT9=
EXTT10=
EXTT11=
PLAYORDER=
